<?xml version="1.0" encoding="UTF-8" standalone="no"?>
<svg
   xmlns:dc="http://purl.org/dc/elements/1.1/"
   xmlns:cc="http://creativecommons.org/ns#"
   xmlns:rdf="http://www.w3.org/1999/02/22-rdf-syntax-ns#"
   xmlns:svg="http://www.w3.org/2000/svg"
   xmlns="http://www.w3.org/2000/svg"
   xmlns:sodipodi="http://sodipodi.sourceforge.net/DTD/sodipodi-0.dtd"
   xmlns:inkscape="http://www.inkscape.org/namespaces/inkscape"
   version="1.1"
   x="0px"
   y="0px"
   viewBox="0 0 100 100"
   enable-background="new 0 0 100 100"
   xml:space="preserve"
   id="svg2"
   inkscape:version="0.91 r13725"
   sodipodi:docname="protector_rabbit.svg"><metadata
     id="metadata20"><rdf:RDF><cc:Work
         rdf:about=""><dc:format>image/svg+xml</dc:format><dc:type
           rdf:resource="http://purl.org/dc/dcmitype/StillImage" /><dc:title></dc:title></cc:Work></rdf:RDF></metadata><defs
     id="defs18" /><sodipodi:namedview
     pagecolor="#ffffff"
     bordercolor="#666666"
     borderopacity="1"
     objecttolerance="10"
     gridtolerance="10"
     guidetolerance="10"
     inkscape:pageopacity="0"
     inkscape:pageshadow="2"
     inkscape:window-width="1556"
     inkscape:window-height="1033"
     id="namedview16"
     showgrid="false"
     inkscape:zoom="5.189414"
     inkscape:cx="68.748494"
     inkscape:cy="17.187124"
     inkscape:window-x="1929"
     inkscape:window-y="698"
     inkscape:window-maximized="0"
     inkscape:current-layer="svg2" /><path
     style="fill:#f8e7f0;fill-opacity:1;fill-rule:evenodd;stroke:#000000;stroke-width:1px;stroke-linecap:butt;stroke-linejoin:miter;stroke-opacity:1"
     d="M 40.397511,35.758845 37.967586,21.938643 35.23392,13.433904 31.740902,7.9665717 28.551625,6.751609 24.754866,8.7259235 22.0212,12.370812 l -0.151871,3.948629 1.366834,7.137906 4.252369,7.441647 6.378555,8.96035 -3.948629,4.859851 -3.796759,10.327183 -2.278055,14.883294 0.303741,9.415961 1.518703,6.682295 1.366833,3.341148 1.974315,2.581796 3.341147,2.126185 3.644888,-1.670574 1.822445,-1.974315 2.126184,-3.341147 7.137907,0.911222 7.289776,-1.063093 1.822444,3.796759 3.493018,3.189277 4.707981,-1.063092 3.341147,-4.707981 3.493018,-12.149627 -0.15187,-6.074814 -4.100499,-22.628681 -5.467333,-7.897258 3.493018,-3.948629 3.189277,5.922943 5.163592,4.40424 5.922943,1.974315 3.948629,-3.189277 -0.455611,-6.986036 -3.644888,-9.264091 C 77.121652,25.180659 74.289175,22.597239 71.075321,20.26807 l -5.163592,-1.518704 -5.011721,1.822444 -2.733666,4.556111 -2.733667,7.897257 -0.15187,2.581796 -6.074814,-1.518703 -5.922943,0.759352 z"
     id="path4185"
     inkscape:connector-curvature="0"
     sodipodi:nodetypes="cccccccccccccccccccccccccccccccccccccccccccccccc" /><path
     style="fill:#e07935;fill-rule:evenodd;stroke:#000000;stroke-width:1px;stroke-linecap:butt;stroke-linejoin:miter;stroke-opacity:1;fill-opacity:1"
     d="m 37.056364,67.196006 c 0,0 17.009478,-11.997757 22.780551,-11.086535 5.771073,0.911222 7.593518,2.278055 8.049129,4.100499 0.455611,1.822444 0.607481,6.530425 -0.759352,7.137906 -1.366833,0.607481 -2.278055,1.214963 -3.189277,0.759352 -0.911222,-0.455611 -3.037407,-2.733666 -4.1005,-3.948629 -1.063092,-1.214963 -1.670573,-1.974315 -3.189277,-2.126185 -1.518703,-0.15187 -3.189277,0.911222 -3.948629,2.581796 -0.759351,1.670574 -0.759351,4.55611 -0.15187,5.771073 0.607481,1.214963 1.670574,2.581796 1.670574,2.581796 L 42.523696,75.397004 39.9419,71.448375 Z"
     id="path4183"
     inkscape:connector-curvature="0" /><path
     fill="#000000"
     d="M41.159,45.93c0,1.015-0.686,1.57-1.531,1.57c-0.846,0-1.531-0.555-1.531-1.57  c0-1.015,0.685-1.838,1.531-1.838C40.745,44.092,41.159,45.142,41.159,45.93z"
     id="path4" /><path
     fill="#000000"
     stroke="#010101"
     stroke-width="1.9041"
     stroke-linecap="round"
     stroke-linejoin="round"
     stroke-miterlimit="10"
     d="  M62.936,25.485"
     id="path6" /><path
     fill="#000000"
     stroke="#010101"
     stroke-width="1.9041"
     stroke-linecap="round"
     stroke-linejoin="round"
     stroke-miterlimit="10"
     d="  M52.864,34.776"
     id="path8" /><path
     fill="#000000"
     d="M51.017,51.407c-1.361-0.245-2.084-0.779-2.469-1.253c0.574-0.619,0.724-1.54-1.006-1.54  c-1.529,0-1.44,0.935-0.927,1.553c-0.386,0.47-1.11,0.996-2.464,1.24c-0.302,0.054-0.503,0.343-0.448,0.645  c0.048,0.269,0.282,0.457,0.546,0.457c0.033,0,0.066-0.003,0.099-0.009c1.78-0.32,2.729-1.083,3.236-1.775  c0.507,0.692,1.456,1.455,3.236,1.775c0.033,0.006,0.066,0.009,0.099,0.009c0.264,0,0.498-0.189,0.546-0.457  C51.52,51.75,51.319,51.461,51.017,51.407z"
     id="path10" /><path
     fill="#000000"
     d="M53.787,45.93c0,1.015,0.686,1.57,1.531,1.57c0.846,0,1.531-0.555,1.531-1.57  c0-1.015-0.686-1.838-1.531-1.838C54.201,44.092,53.787,45.142,53.787,45.93z"
     id="path12" /><path
     style="fill:#3be035;fill-rule:evenodd;stroke:none;stroke-width:1px;stroke-linecap:butt;stroke-linejoin:miter;stroke-opacity:1;fill-opacity:1"
     d="m 64.696766,57.020693 c 0.176808,-1.188467 -0.566583,-0.110973 -0.759351,-0.303741 -0.0358,-0.0358 0.02264,-0.106591 0,-0.15187 -0.09112,-0.182245 -0.364489,-0.273367 -0.455611,-0.455611 -0.02264,-0.04528 0.0358,-0.116074 0,-0.151871 -0.0358,-0.0358 -0.116075,0.0358 -0.151871,0 -0.07159,-0.07159 0.04528,-0.213182 0,-0.30374 -0.03202,-0.06404 -0.119853,-0.08784 -0.15187,-0.151871 -0.02264,-0.04528 0.0358,-0.116074 0,-0.15187 -0.0358,-0.0358 -0.116074,0.0358 -0.15187,0 -0.07594,-0.07594 0.07594,-0.379676 0,-0.455611 -0.0358,-0.0358 -0.116075,0.0358 -0.151871,0 -0.03654,-0.03655 0.03655,-0.570937 0,-0.607481 -0.0358,-0.0358 -0.116074,0.0358 -0.15187,0 -0.0358,-0.0358 0,-0.101247 0,-0.151871 0,-0.404987 0,-0.809975 0,-1.214963 0,-0.253117 0,-0.506234 0,-0.759351 0,-0.05062 0,-0.101247 0,-0.151871 0,-0.05062 -0.02264,-0.106591 0,-0.15187 0.09112,-0.182244 0.364489,-0.273367 0.455611,-0.455611 0.02264,-0.04528 -0.0358,-0.116074 0,-0.15187 0.314225,-0.314225 -0.01228,0.480177 0.303741,-0.151871 0.02264,-0.04528 -0.0358,-0.116074 0,-0.15187 0.0358,-0.0358 0.116074,0.0358 0.15187,0 0.0358,-0.0358 -0.0358,-0.116074 0,-0.15187 0.0358,-0.0358 0.106591,0.02264 0.15187,0 0.128069,-0.06404 0.175673,-0.239707 0.303741,-0.303741 0.04528,-0.02264 0.106591,0.02264 0.15187,0 0.128069,-0.06403 0.175673,-0.239707 0.303741,-0.303741 0.04528,-0.02264 0.116074,0.0358 0.15187,0 0.10317,-0.103169 -0.155284,-0.302033 0.151871,-0.455611 0.09056,-0.04528 0.232148,0.07159 0.30374,0 0.0358,-0.0358 -0.0358,-0.116074 0,-0.15187 0.0358,-0.0358 0.106592,0.02264 0.151871,0 0.06403,-0.03202 0.08784,-0.119853 0.15187,-0.15187 0.09056,-0.04528 0.232148,0.07159 0.303741,0 0.0358,-0.0358 -0.0358,-0.116075 0,-0.151871 0.0358,-0.0358 0.101247,0 0.15187,0 0.05062,0 0.101247,0 0.15187,0 0.05062,0 0.202494,0 0.151871,0 -0.101247,0 -0.404988,0 -0.303741,0 0.15187,0 0.311534,0.04803 0.455611,0 0.04803,-0.01601 -0.0358,-0.116074 0,-0.15187 0.0358,-0.0358 0.101247,0 0.151871,0 0.05062,0 0.15187,-0.05062 0.15187,0 0,0.05062 -0.202494,0 -0.15187,0 0.691357,0 0.0087,0.07159 0.455611,-0.15187 0.04483,-0.02241 0.906634,0 1.063092,0 0.07942,0 0.567548,-0.01997 0.607481,0 0.06403,0.03202 0.223463,0.15187 0.151871,0.15187 -0.113198,0 -0.416938,-0.15187 -0.303741,-0.15187 0.160085,0 0.300305,0.113043 0.455611,0.15187 0.04911,0.01228 0.116074,-0.0358 0.15187,0 0.314226,0.314225 -0.480177,-0.01228 0.151871,0.303741 0.09056,0.04528 0.232148,-0.07159 0.30374,0 0.0358,0.0358 -0.0358,0.116074 0,0.15187 0.0358,0.0358 0.116075,-0.0358 0.151871,0 0.0358,0.0358 -0.0358,0.116074 0,0.15187 0.07159,0.07159 0.232148,-0.07159 0.30374,0 0.0358,0.0358 -0.0358,0.116074 0,0.151871 0.0358,0.0358 0.129231,-0.04528 0.151871,0 0.04528,0.09056 -0.04528,0.213182 0,0.30374 0.02264,0.04528 0.116074,-0.0358 0.15187,0 0.0358,0.0358 -0.0358,0.116074 0,0.151871 0.0358,0.0358 0.129231,-0.04528 0.15187,0 0.04528,0.09056 -0.04528,0.213182 0,0.30374 0.02264,0.04528 0.116075,-0.0358 0.151871,0 0.07159,0.07159 -0.07159,0.232149 0,0.303741 0.0358,0.0358 0.116074,-0.0358 0.15187,0 0.07159,0.07159 -0.07159,0.232148 0,0.303741 0.0358,0.0358 0.116074,-0.0358 0.15187,0 0.07159,0.07159 -0.07159,0.232148 0,0.30374 0.0358,0.0358 0.129231,-0.04528 0.151871,0 0,0.860599 -0.101247,0.05062 0.15187,0.303741 0.07594,0.07594 -0.07594,0.379676 0,0.455611 0.0358,0.0358 0.106592,-0.02264 0.151871,0 0.632048,0.316024 -0.162355,-0.01048 0.15187,0.303741 0.0358,0.0358 0.106591,-0.02264 0.15187,0 0.06403,0.03202 0.08784,0.119853 0.151871,0.15187 0.121496,0.06075 0.334114,-0.06075 0.455611,0 0.06403,0.03202 0.08784,0.119853 0.15187,0.15187 0.04622,0.02311 0.387215,0 0.455611,0 0.404988,0 0.809975,0 1.214963,0 0.0998,0 0.369926,-0.02856 0.455611,0 0.107388,0.0358 0.193923,0.124416 0.30374,0.151871 0.118485,0.02962 0.733964,0 0.911222,0 0.05062,0 0.103845,-0.01601 0.151871,0 0.107388,0.0358 0.196352,0.116074 0.303741,0.15187 0.04803,0.01601 0.116074,-0.0358 0.15187,0 0.0358,0.0358 -0.0358,0.116074 0,0.15187 0.10148,0.10148 0.202261,-0.101479 0.303741,0 0.314225,0.314226 -0.480178,-0.01228 0.15187,0.303741 0.09056,0.04528 0.232148,-0.07159 0.303741,0 0.0358,0.0358 -0.02264,0.106592 0,0.151871 0.03202,0.06403 0.119853,0.08784 0.15187,0.15187 0.02264,0.04528 -0.0358,0.116074 0,0.15187 0.0358,0.0358 0.106591,-0.02264 0.15187,0 0.06403,0.03202 0.101247,0.101247 0.151871,0.151871 0.05062,0.05062 0.112158,0.0923 0.15187,0.15187 0.06279,0.09419 0.07183,0.223698 0.15187,0.303741 0.0358,0.0358 0.116074,-0.0358 0.151871,0 0,0.404987 -0.05062,-0.05062 0.15187,0.15187 0.07159,0.07159 -0.07159,0.232148 0,0.303741 0.0358,0.0358 0.116074,-0.0358 0.15187,0 0.0358,0.0358 -0.0358,0.116074 0,0.15187 0.0358,0.0358 0.116074,-0.0358 0.151871,0 0.0358,0.0358 -0.0358,0.116074 0,0.15187 0.0358,0.0358 0.116074,-0.0358 0.15187,0 0.0358,0.0358 -0.0358,0.116074 0,0.151871 0.0358,0.0358 0.116074,-0.0358 0.15187,0 0.07159,0.07159 -0.04528,0.213182 0,0.30374 0.03202,0.06403 0.119854,0.08784 0.151871,0.151871 0.02264,0.04528 0,0.101247 0,0.15187 0,0.155052 -0.02459,0.98931 0,1.063092 0.187666,0.563 0.15187,-0.185122 0.15187,0.303741 0,0.05062 0.05062,0.15187 0,0.15187 -0.05062,0 0,-0.202493 0,-0.15187 0,0.455611 0,0.911222 0,1.366833 0,0.05062 0.0358,0.116074 0,0.151871 -0.0358,0.0358 -0.116074,-0.0358 -0.15187,0 -0.0358,0.0358 0.0358,0.116074 0,0.15187 -0.314225,0.314225 0.01228,-0.480178 -0.303741,0.15187 -0.02264,0.04528 0.0358,0.116074 0,0.151871 -0.0358,0.0358 -0.116074,-0.0358 -0.15187,0 -0.0358,0.0358 0.02264,0.106591 0,0.15187 -0.03202,0.06403 -0.119854,0.08784 -0.151871,0.15187 -0.02264,0.04528 0,0.101247 0,0.151871 0,0.05062 0,0.101247 0,0.15187 0,0.05062 0,0.202494 0,0.15187 0,-0.101247 0.101247,-0.30374 0,-0.30374 -0.418199,0 -0.04289,0.346629 -0.15187,0.455611 -0.0358,0.0358 -0.106591,-0.02264 -0.15187,0 -0.632048,0.316024 0.162354,-0.01049 -0.151871,0.30374 -0.0358,0.0358 -0.116074,-0.0358 -0.15187,0 -0.0358,0.0358 0.0358,0.116074 0,0.151871 -0.07159,0.07159 -0.232148,-0.07159 -0.303741,0 -0.0358,0.0358 0.0358,0.116074 0,0.15187 -0.0358,0.0358 -0.106591,-0.02264 -0.15187,0 -0.06403,0.03202 -0.08784,0.119853 -0.15187,0.15187 -0.09056,0.04528 -0.232149,-0.07159 -0.303741,0 -0.0358,0.0358 0.0358,0.116075 0,0.151871 -0.0358,0.0358 -0.116074,-0.0358 -0.15187,0 -0.0358,0.0358 -0.05062,0.15187 0,0.15187 0.07159,0 0.223462,-0.15187 0.15187,-0.15187 -0.76722,0 -0.116716,0.116716 -0.303741,0.30374 -0.0358,0.0358 -0.15187,0.05062 -0.15187,0 0,-0.07159 0.15187,-0.223462 0.15187,-0.15187 0,0.113198 -0.116074,0.196352 -0.15187,0.303741 -0.01601,0.04803 0.05062,0.15187 0,0.15187 -0.04538,0 0.09998,-0.50369 -0.15187,0 -0.02264,0.04528 0,0.101247 0,0.15187 0,0.05062 0,0.101247 0,0.151871 0,0.05062 0,0.202494 0,0.15187 0,-0.943537 0,0.619798 0,0.759352 0,0.573732 0,-0.674979 0,0.303741 0,0.05062 0,0.101246 0,0.15187 0,0.05062 -0.0358,0.116074 0,0.15187 0.0358,0.0358 0.116074,-0.0358 0.15187,0 0.0358,0.0358 -0.02264,0.106592 0,0.151871 0.03202,0.06403 0.129231,0.08395 0.15187,0.15187 0.04803,0.144077 0,0.303741 0,0.455611 0,0.860599 0,-1.012469 0,-0.15187 0,0.455611 0,0.911222 0,1.366833 0,0.101247 0,0.202493 0,0.30374 0,0.05062 0.02264,0.106592 0,0.151871 -0.03202,0.06403 -0.119853,0.08784 -0.15187,0.15187 -0.02264,0.04528 0.02264,0.106591 0,0.15187 -0.06403,0.128069 -0.258462,0.167904 -0.303741,0.303741 -0.03202,0.09605 0.04528,0.213183 0,0.303741 -0.02264,0.04528 -0.116074,-0.0358 -0.15187,0 -0.0358,0.0358 0.0358,0.116074 0,0.15187 -0.0358,0.0358 -0.116074,-0.0358 -0.151871,0 -0.07159,0.07159 0.07159,0.232148 0,0.303741 -0.0358,0.0358 -0.116074,-0.0358 -0.15187,0 -0.07594,0.07594 0.07593,0.379676 0,0.455611 -0.0358,0.0358 -0.116074,-0.0358 -0.15187,0 -0.0358,0.0358 0.0358,0.116074 0,0.15187 -0.0358,0.0358 -0.106592,-0.02264 -0.151871,0 -0.06403,0.03202 -0.08784,0.119853 -0.15187,0.151871 -0.04528,0.02264 -0.116074,-0.0358 -0.15187,0 -0.0358,0.0358 0.0358,0.116074 0,0.15187 -0.07159,0.07159 -0.232149,-0.07159 -0.303741,0 -0.0358,0.0358 0.0358,0.116074 0,0.15187 -0.0358,0.0358 -0.106591,-0.02264 -0.15187,0 -0.06403,0.03202 -0.08784,0.119853 -0.151871,0.151871 -0.04528,0.02264 -0.116074,-0.0358 -0.15187,0 -0.0358,0.0358 0.0358,0.116074 0,0.15187 -0.0358,0.0358 -0.116074,-0.0358 -0.15187,0 -0.0358,0.0358 0.0358,0.116074 0,0.15187 -0.0358,0.0358 -0.106592,-0.02264 -0.151871,0 -0.06403,0.03202 -0.08784,0.119853 -0.15187,0.151871 -0.06021,0.03011 -0.424563,-0.03105 -0.455611,0 -0.0358,0.0358 0.0358,0.116074 0,0.15187 -0.07159,0.07159 -0.213183,-0.04528 -0.303741,0 -0.06403,0.03202 -0.08784,0.119853 -0.15187,0.15187 -0.04528,0.02264 -0.101247,0 -0.15187,0 -0.101247,0 -0.202494,0 -0.303741,0 -0.303741,0 -0.607481,0 -0.911222,0 -0.202494,0 -0.404988,0 -0.607482,0 -0.1497,0 -0.453441,0 -0.30374,0 0.101247,0 0.404987,0 0.30374,0 -0.15187,0 -0.30374,0 -0.455611,0 -0.05062,0 -0.101246,0 -0.15187,0 -0.05062,0 -0.116074,0.0358 -0.15187,0 -0.0358,-0.0358 0.0358,-0.116074 0,-0.15187 -0.07159,-0.07159 -0.232149,0.07159 -0.303741,0 -0.0358,-0.0358 0.0358,-0.116074 0,-0.15187 -0.0358,-0.0358 -0.116074,0.0358 -0.15187,0 -0.07159,-0.07159 0.04528,-0.213183 0,-0.303741 -0.316024,-0.632048 0.01048,0.162355 -0.303741,-0.15187 -0.0358,-0.0358 0.0358,-0.116075 0,-0.151871 -0.0358,-0.0358 -0.106591,0.02264 -0.15187,0 -0.06403,-0.03202 -0.101247,-0.101247 -0.151871,-0.15187 -0.05062,-0.05062 -0.119853,-0.08784 -0.15187,-0.15187 -0.02264,-0.04528 0.0358,-0.116075 0,-0.151871 -0.0358,-0.0358 -0.116074,0.0358 -0.15187,0 -0.0358,-0.0358 0.0358,-0.116074 0,-0.15187 -0.0358,-0.0358 -0.116074,0.0358 -0.151871,0 -0.427627,-0.0094 -0.03867,-0.342414 -0.15187,-0.455611 -0.314225,-0.314225 0.01228,0.480177 -0.303741,-0.151871 -0.04528,-0.09056 0.07159,-0.232148 0,-0.30374 -0.0358,-0.0358 -0.116074,0.0358 -0.15187,0 -0.0358,-0.0358 0.0358,-0.116074 0,-0.151871 -0.0358,-0.0358 -0.116074,0.0358 -0.15187,0 -0.0358,-0.0358 0.02264,-0.106591 0,-0.15187 -0.03202,-0.06403 -0.119854,-0.08784 -0.151871,-0.15187 -0.04528,-0.09056 0.07159,-0.232149 0,-0.303741 -0.0358,-0.0358 -0.116074,0.0358 -0.15187,0 -0.0069,-0.0069 0,-0.687745 0,-0.759352 0,-0.05062 0,-0.202493 0,-0.15187 0,0.101247 0,0.404988 0,0.303741 0,-0.202494 0,-0.404988 0,-0.607482 0,-0.05062 0,-0.202493 0,-0.15187 0,0.101247 -0.101247,0.303741 0,0.303741 0.233075,0 0.119737,-0.543215 0.15187,-0.607482 0.02264,-0.04528 0.116074,0.0358 0.151871,0 0.0358,-0.0358 -0.0358,-0.116074 0,-0.15187 0.0358,-0.0358 0.116074,0.0358 0.15187,0 0.07159,-0.07159 -0.07159,-0.232148 0,-0.303741 0.0358,-0.0358 0.116074,0.0358 0.15187,0 0.0049,-0.0049 0,-0.418778 0,-0.455611 0,-0.05062 0,-0.202494 0,-0.15187 0,0.101247 0.101247,0.303741 0,0.303741 -0.101247,0 -0.03202,-0.20769 0,-0.303741 0.02264,-0.06792 0.119854,-0.08784 0.151871,-0.15187 0.02264,-0.04528 0,-0.101247 0,-0.151871 0,-0.05062 0,-0.101247 0,-0.15187 0,-0.303741 0,-0.607482 0,-0.911222 0,-0.303741 0,-0.607482 0,-0.911222 0,-0.0684 0.02311,-0.409392 0,-0.455611 -0.03202,-0.06403 -0.119854,-0.08784 -0.151871,-0.151871 -0.03011,-0.06021 0.03105,-0.424563 0,-0.455611 -0.0358,-0.0358 -0.116074,0.0358 -0.15187,0 -0.0358,-0.0358 0.0358,-0.116074 0,-0.15187 -0.0358,-0.0358 -0.116074,0.0358 -0.15187,0 -0.07159,-0.07159 0.07159,-0.232148 0,-0.303741 -0.0358,-0.0358 -0.101247,0 -0.151871,0 -0.101247,-0.05062 -0.223698,-0.07183 -0.30374,-0.15187 -0.0358,-0.0358 0.0358,-0.116074 0,-0.15187 -0.0358,-0.0358 -0.116075,0.0358 -0.151871,0 -0.0358,-0.0358 0.0358,-0.116075 0,-0.151871 -0.0358,-0.0358 -0.116074,0.0358 -0.15187,0 -0.0358,-0.0358 0.0358,-0.116074 0,-0.15187 -0.0358,-0.0358 -0.116074,0.0358 -0.15187,0 -0.0358,-0.0358 0.0358,-0.116074 0,-0.15187 -0.0358,-0.0358 -0.116075,0.0358 -0.151871,0 -0.0358,-0.0358 0.0358,-0.116075 0,-0.151871 -0.0358,-0.0358 -0.116074,0.0358 -0.15187,0 -0.07159,-0.07159 0.07159,-0.232148 0,-0.30374 -0.0358,-0.0358 -0.116074,0.0358 -0.15187,0 -0.0358,-0.0358 0.0358,-0.116075 0,-0.151871 -0.0358,-0.0358 -0.116075,0.0358 -0.151871,0 -0.0358,-0.0358 0.0358,-0.116074 0,-0.15187 -0.0358,-0.0358 -0.116074,0.0358 -0.15187,0 -0.314225,-0.314225 0.480177,0.01228 -0.151871,-0.303741 -0.04528,-0.02264 -0.116074,0.0358 -0.15187,0 -0.0358,-0.0358 0.0358,-0.116074 0,-0.15187 -0.0358,-0.0358 -0.116074,0.0358 -0.15187,0 -0.0358,-0.0358 0.02264,-0.106592 0,-0.151871 -0.503691,-0.50369 0.07159,0.143185 -0.151871,-0.30374 -0.316024,-0.632048 0.01048,0.162355 -0.30374,-0.151871 -0.0358,-0.0358 0.0358,-0.116074 0,-0.15187 -0.0358,-0.0358 -0.151871,0.05062 -0.151871,0 0,-0.05062 0.101247,0 0.151871,0 -0.202494,-0.05062 -0.404988,-0.101247 -0.607482,-0.15187 z"
     id="path4181"
     inkscape:connector-curvature="0" /><path
     style="fill:#000000"
     d="M 28.695312 5.9375 C 27.741312 5.9375 26.757484 6.2147187 25.771484 6.7617188 C 23.146484 8.2197188 21.558781 10.422641 21.050781 13.306641 C 20.181781 18.235641 22.481672 25.064469 27.888672 33.605469 C 29.405672 36.001469 30.967312 38.204672 32.320312 40.013672 C 31.580313 40.841672 30.874938 41.734891 30.210938 42.712891 C 29.534938 43.706891 28.922234 44.749312 28.365234 45.820312 L 21.509766 45.820312 C 21.071766 45.820312 20.716797 46.175281 20.716797 46.613281 C 20.716797 47.051281 21.071766 47.40625 21.509766 47.40625 L 27.591797 47.40625 C 27.207797 48.24525 26.85425 49.097078 26.53125 49.955078 L 22.576172 50.777344 C 22.147172 50.866344 21.871938 51.285844 21.960938 51.714844 C 22.038937 52.089844 22.368328 52.347656 22.736328 52.347656 C 22.789328 52.347656 22.844438 52.342078 22.898438 52.330078 L 25.914062 51.703125 C 23.998062 57.494125 23.302688 63.337734 23.054688 67.052734 C 22.533687 74.855734 23.263141 82.823906 24.869141 86.878906 C 26.841141 91.856906 29.644672 94.641656 32.763672 94.722656 C 35.709672 94.793656 38.463109 92.447562 40.537109 88.101562 C 41.196109 88.250563 41.913594 88.387953 42.683594 88.501953 C 43.877594 88.677953 45.273266 88.804688 46.822266 88.804688 C 48.966266 88.804688 51.404859 88.561953 54.005859 87.876953 C 55.192859 92.054953 57.419016 94.640281 60.166016 94.988281 C 60.382016 95.015281 60.598453 95.029297 60.814453 95.029297 C 63.492453 95.029297 66.156891 92.947891 68.212891 89.212891 C 70.391891 85.254891 71.786422 78.419141 71.982422 70.994141 C 72.109422 71.003141 72.235281 71.007812 72.363281 71.007812 C 73.120281 71.007812 73.859547 70.856594 74.560547 70.558594 C 77.404547 69.345594 78.732531 66.044172 77.519531 63.201172 C 77.422531 62.972172 77.310547 62.753016 77.185547 62.541016 C 78.444547 61.933016 79.417359 60.892937 79.943359 59.585938 C 80.502359 58.196937 80.486437 56.672922 79.898438 55.294922 C 79.015438 53.223922 76.991234 51.886719 74.740234 51.886719 C 74.072234 51.886719 73.418969 52.003328 72.792969 52.236328 C 72.726969 52.000328 72.643875 51.768062 72.546875 51.539062 C 71.774875 49.729062 70.130609 48.479359 68.224609 48.193359 C 67.836609 47.270359 67.421516 46.381156 66.978516 45.535156 L 70.128906 44.605469 C 71.194906 45.583469 72.323375 46.420125 73.484375 47.078125 C 75.251375 48.080125 76.975953 48.587891 78.501953 48.587891 C 79.539953 48.587891 80.487922 48.352953 81.294922 47.876953 C 82.606922 47.102953 84.162094 45.337313 84.121094 41.320312 C 84.119094 41.307313 84.114281 41.291391 84.113281 41.275391 C 84.112281 41.259391 84.114281 41.244516 84.113281 41.228516 C 84.093281 41.044516 83.593797 36.667875 81.591797 31.671875 C 78.903797 24.961875 74.764094 20.397609 69.621094 18.474609 C 66.664094 17.369609 64.002938 17.535844 61.710938 18.964844 C 56.076937 22.478844 54.681375 32.547047 54.484375 34.248047 C 52.361375 33.553047 50.077391 33.201172 47.650391 33.201172 C 45.267391 33.201172 43.038844 33.550422 40.964844 34.232422 C 40.585844 31.285422 40.058656 27.823047 39.347656 24.373047 C 38.275656 19.165047 36.999688 15.002 35.554688 12 C 33.618688 7.977 31.311312 5.9375 28.695312 5.9375 z M 28.695312 7.8398438 C 32.114312 7.8398438 35.233469 13.841281 37.480469 24.738281 C 38.220469 28.327281 38.757719 31.9315 39.136719 34.9375 C 38.731719 35.1185 38.335359 35.317344 37.943359 35.527344 C 37.635359 32.409344 35.968609 28.158109 35.349609 25.162109 C 32.848609 13.056109 30.1905 10.563141 28.1875 11.119141 C 26.5835 11.565141 26.022781 12.603219 25.425781 14.074219 C 24.027781 17.518219 30.789078 32.801578 34.330078 38.017578 C 34.104078 38.213578 33.880156 38.415047 33.660156 38.623047 C 32.376156 36.899047 30.918094 34.832938 29.496094 32.585938 C 24.423094 24.572938 22.151828 18.020719 22.923828 13.636719 C 23.332828 11.313719 24.566313 9.6087812 26.695312 8.4257812 C 27.395312 8.0367813 28.068313 7.8398437 28.695312 7.8398438 z M 65.603516 19.662109 C 66.638016 19.608859 67.749625 19.807813 68.953125 20.257812 C 74.786125 22.437812 78.074641 28.028937 79.806641 32.335938 C 81.602641 36.802937 82.150844 40.863813 82.214844 41.382812 C 82.232844 43.820813 81.580172 45.500234 80.326172 46.240234 C 78.935172 47.060234 76.782875 46.763781 74.421875 45.425781 C 73.712875 45.023781 72.996109 44.528125 72.287109 43.953125 C 72.618109 43.782125 72.793594 43.396391 72.683594 43.025391 C 72.559594 42.605391 72.118266 42.364281 71.697266 42.488281 L 70.912109 42.720703 C 67.307109 39.166703 64.251078 33.486656 64.205078 26.722656 C 64.201078 26.198656 63.776906 25.777344 63.253906 25.777344 L 63.246094 25.777344 C 62.993094 25.779344 62.765703 25.881969 62.595703 26.042969 C 62.288703 26.116969 59.472563 27.022484 57.726562 35.646484 C 57.255563 35.389484 56.775203 35.149594 56.283203 34.933594 C 56.318203 34.849594 56.344516 34.762969 56.353516 34.667969 C 56.356516 34.640969 56.632031 31.913203 57.582031 28.783203 C 58.437031 25.968203 60.020797 22.259125 62.716797 20.578125 C 63.611297 20.020125 64.569016 19.715359 65.603516 19.662109 z M 62.927734 32.054688 C 63.123734 32.908687 63.361484 33.753984 63.646484 34.583984 C 63.639484 34.617984 63.629953 34.650547 63.626953 34.685547 C 63.624953 34.708547 63.392734 36.834906 61.552734 38.378906 C 61.131734 37.997906 60.698859 37.635922 60.255859 37.294922 C 61.419859 35.873922 62.738734 33.896688 62.927734 32.054688 z M 47.650391 35.105469 C 54.770391 35.105469 60.364016 38.331734 64.291016 44.677734 L 63.328125 44.962891 C 62.908125 45.086891 62.668969 45.526266 62.792969 45.947266 C 62.894969 46.292266 63.211687 46.517578 63.554688 46.517578 C 63.628687 46.517578 63.704297 46.506375 63.779297 46.484375 L 65.113281 46.089844 C 65.489281 46.784844 65.844687 47.513531 66.179688 48.269531 C 65.843688 48.344531 65.513406 48.446984 65.191406 48.583984 C 63.813406 49.170984 62.7465 50.260391 62.1875 51.650391 C 61.7325 52.782391 61.666656 54.002156 61.972656 55.160156 C 61.587656 55.124156 61.192203 55.101562 60.783203 55.101562 C 58.467203 55.101562 52.03925 55.799672 42.40625 62.263672 C 40.62825 63.456672 38.935312 64.735906 37.445312 66.003906 C 36.964312 64.428906 36.947266 63.260328 36.947266 63.236328 C 36.946266 62.711328 36.521094 62.286156 35.996094 62.285156 C 35.471094 62.285156 35.045922 62.710328 35.044922 63.236328 C 35.044922 63.476328 35.092188 69.16375 39.992188 73.09375 C 41.329188 74.16575 41.697594 75.356109 41.058594 76.537109 C 40.270594 77.994109 38.024547 79.168391 36.060547 78.525391 C 32.444547 77.343391 28.981375 73.780813 29.359375 69.257812 C 29.403375 68.733812 29.014234 68.272516 28.490234 68.228516 C 27.964234 68.186516 27.506891 68.573656 27.462891 69.097656 C 27.245891 71.686656 28.012687 74.177875 29.679688 76.296875 C 30.855982 77.792518 32.414337 79.003935 34.154297 79.810547 C 34.321591 79.877821 34.469988 79.931846 34.650391 80.007812 C 35.411513 80.328318 36.114953 80.49626 36.775391 80.568359 C 36.90621 80.577123 37.03616 80.597656 37.167969 80.597656 C 37.331969 80.597656 37.495156 80.589172 37.660156 80.576172 L 37.660156 80.59375 C 41.454619 80.430098 43.318704 76.45459 43.162109 74.505859 C 43.161483 74.505928 43.160783 74.50579 43.160156 74.505859 C 42.914156 73.461859 42.249641 72.461469 41.181641 71.605469 C 39.759641 70.465469 38.818406 69.134047 38.191406 67.873047 C 39.645406 66.594047 41.407797 65.22575 43.466797 63.84375 C 49.848797 59.56075 56.322203 57.003906 60.783203 57.003906 C 64.145203 57.003906 66.288891 58.352 67.337891 61.125 C 67.884891 62.571 67.686422 63.945172 66.732422 65.326172 C 66.239336 66.039849 65.566842 66.720257 64.755859 67.367188 C 63.868691 67.040523 62.40126 66.121067 60.722656 63.496094 C 59.287656 61.252094 57.108531 60.367953 54.894531 61.126953 C 52.428531 61.973953 50.753094 64.596516 50.996094 67.228516 C 51.155807 68.955569 51.492783 70.462536 52.234375 71.841797 C 54.168895 74.560727 56.6875 76.068359 56.6875 76.068359 C 56.6875 76.068359 56.785982 76.181576 56.808594 76.207031 C 57.790073 76.787039 58.917162 77.360626 60.257812 77.933594 C 60.379812 77.985594 60.506859 78.009766 60.630859 78.009766 C 61.000859 78.009766 61.352812 77.792641 61.507812 77.431641 C 61.714813 76.948641 61.489859 76.389594 61.005859 76.183594 C 54.570859 73.434594 53.262578 71.048734 52.892578 67.052734 C 52.711578 65.095734 54.082672 63.418734 55.513672 62.927734 C 56.880672 62.458734 58.160187 63.025438 59.117188 64.523438 C 62.534188 69.868437 65.635562 69.486781 65.976562 69.425781 C 66.494563 69.333781 66.838094 68.839266 66.746094 68.322266 C 66.738094 68.279266 66.723937 68.238266 66.710938 68.197266 C 66.901938 68.022266 67.076234 67.849688 67.240234 67.679688 C 67.816234 68.972688 68.839984 69.970438 70.083984 70.523438 C 69.934984 77.739437 68.593922 84.574875 66.544922 88.296875 C 64.745922 91.564875 62.449297 93.359562 60.404297 93.101562 C 58.444297 92.853562 56.791125 90.755078 55.828125 87.330078 C 56.787125 87.007078 57.763953 86.623063 58.751953 86.164062 C 59.228953 85.942063 59.434891 85.375438 59.212891 84.898438 C 58.990891 84.421437 58.424266 84.2155 57.947266 84.4375 C 57.660266 84.5705 57.375797 84.6935 57.091797 84.8125 C 57.091947 84.809234 57.091647 84.804057 57.091797 84.800781 C 57.087141 84.804138 57.035156 84.84375 57.035156 84.84375 C 53.871097 86.996548 41.213061 88.306774 37.392578 85.242188 L 37.037109 85 C 36.899846 84.938948 36.640771 84.828198 36.636719 84.826172 C 36.166719 84.591172 35.595375 84.782953 35.359375 85.251953 C 35.123375 85.721953 35.314203 86.293297 35.783203 86.529297 C 35.851203 86.563297 36.892109 87.078328 38.662109 87.611328 C 36.979109 90.984328 34.8695 92.868266 32.8125 92.822266 C 30.5375 92.763266 28.287672 90.341688 26.638672 86.179688 C 24.902672 81.796688 24.547125 73.258641 24.953125 67.181641 C 25.347125 61.278641 26.427984 55.850859 28.083984 51.255859 L 30.398438 50.775391 C 30.827437 50.686391 31.102672 50.266891 31.013672 49.837891 C 30.924672 49.408891 30.506172 49.133656 30.076172 49.222656 L 28.767578 49.494141 C 29.064578 48.774141 29.376125 48.078203 29.703125 47.408203 L 30.236328 47.408203 C 30.674328 47.408203 31.029297 47.053234 31.029297 46.615234 C 31.029297 46.271234 30.809906 45.981094 30.503906 45.871094 C 30.911906 45.139094 31.337203 44.440203 31.783203 43.783203 C 35.696203 38.025203 41.034391 35.105469 47.650391 35.105469 z M 64.763672 37.302734 C 65.099672 37.999734 65.464234 38.682609 65.865234 39.349609 C 66.740234 40.803609 67.74675 42.145031 68.84375 43.332031 L 66.185547 44.117188 C 65.207547 42.471187 64.114969 41.00575 62.917969 39.71875 C 63.789969 38.95075 64.375672 38.087734 64.763672 37.302734 z M 67.386719 50.037109 C 68.873719 50.037109 70.211922 50.920109 70.794922 52.287109 C 70.988922 52.741109 71.087797 53.221937 71.091797 53.710938 C 71.094797 54.065937 71.294375 54.389781 71.609375 54.550781 C 71.925375 54.712781 72.305703 54.683516 72.595703 54.478516 C 72.813703 54.323516 73.047062 54.192844 73.289062 54.089844 C 73.753062 53.891844 74.239281 53.792969 74.738281 53.792969 C 76.225281 53.792969 77.563484 54.675969 78.146484 56.042969 C 78.534484 56.952969 78.546734 57.958953 78.177734 58.876953 C 77.808734 59.794953 77.103359 60.512391 76.193359 60.900391 C 75.950359 61.004391 75.695594 61.083812 75.433594 61.132812 C 75.084594 61.198813 74.802219 61.452969 74.699219 61.792969 C 74.597219 62.132969 74.691312 62.500047 74.945312 62.748047 C 75.296312 63.090047 75.572625 63.493266 75.765625 63.947266 C 76.566625 65.825266 75.6905 68.005641 73.8125 68.806641 C 73.3485 69.004641 72.862281 69.103516 72.363281 69.103516 C 70.876281 69.103516 69.538078 68.220516 68.955078 66.853516 C 68.854078 66.616516 68.776562 66.366328 68.726562 66.111328 C 68.709563 66.025328 68.679625 65.944187 68.640625 65.867188 C 69.656625 64.123188 69.820141 62.304172 69.119141 60.451172 C 68.194141 58.006172 66.507922 56.370516 64.169922 55.603516 C 64.154922 55.561516 64.142094 55.518516 64.121094 55.478516 C 64.065094 55.373516 64.020422 55.279406 63.982422 55.191406 C 63.594422 54.281406 63.584125 53.275422 63.953125 52.357422 C 64.322125 51.439422 65.0275 50.720984 65.9375 50.333984 C 66.4005 50.136984 66.887719 50.037109 67.386719 50.037109 z M 64.832031 67.392578 C 64.991914 67.44723 65.127557 67.482227 65.242188 67.503906 C 65.120863 67.483044 65.009803 67.453267 64.832031 67.392578 z "
     id="path14" /><path
     style="fill:#b6b6b6;fill-opacity:1;fill-rule:evenodd;stroke:#000000;stroke-width:1.5;stroke-linecap:butt;stroke-linejoin:miter;stroke-miterlimit:4;stroke-dasharray:none;stroke-opacity:1"
     d="m 53.838037,73.118949 c -2.338093,0.697218 -4.701641,1.494608 -11.390276,2.20212"
     id="path4159"
     inkscape:connector-curvature="0"
     sodipodi:nodetypes="cc" /></svg>